<svg xmlns="http://www.w3.org/2000/svg" viewBox="0 0 640 512">
  <path fill="#000" d="M0 32C0 14.3 14.3 0 32 0h576c17.7 0 32 14.3 32 32v448c0 17.7-14.3 32-32 32H32c-17.7 0-32-14.3-32-32V32zm64 0v448h32V32H64zm64 0v448h32V32h-32zm64 0v448h32V32h-32zm64 0v448h32V32h-32zm64 0v448h32V32h-32zm64 0v448h32V32h-32zm64 0v448h32V32h-32zm64 0v448h32V32h-32zm64 0v448h32V32h-32zM0 64h640v32H0V64zm0 64h640v32H0v-32zm0 64h640v32H0v-32zm0 64h640v32H0v-32zm0 64h640v32H0v-32zm0 64h640v32H0v-32zm0 64h640v32H0v-32z"/>
</svg>